<svg width="1440" height="460" viewBox="0 0 1440 460" fill="none" xmlns="http://www.w3.org/2000/svg">
<rect width="1440" height="460" fill="#F4F1FF"/>
<mask id="mask0_2_1322" style="mask-type:alpha" maskUnits="userSpaceOnUse" x="0" y="0" width="1440" height="460">
<rect width="1440" height="460" fill="#FFF9F7"/>
</mask>
<g mask="url(#mask0_2_1322)">
<g clip-path="url(#clip0_2_1322)">
<path d="M1417.22 227.661C1420.91 227.661 1423.91 224.668 1423.91 220.975C1423.91 217.282 1420.91 214.288 1417.22 214.288C1413.53 214.288 1410.53 217.282 1410.53 220.975C1410.53 224.668 1413.53 227.661 1417.22 227.661Z" fill="#693DE7" fill-opacity="0.5"/>
<path d="M1439.51 205.373C1443.2 205.373 1446.19 202.379 1446.19 198.686C1446.19 194.994 1443.2 192 1439.51 192C1435.81 192 1432.82 194.994 1432.82 198.686C1432.82 202.379 1435.81 205.373 1439.51 205.373Z" fill="#693DE7" fill-opacity="0.5"/>
<path d="M1372.64 272.238C1376.34 272.238 1379.33 269.244 1379.33 265.551C1379.33 261.858 1376.34 258.865 1372.64 258.865C1368.95 258.865 1365.96 261.858 1365.96 265.551C1365.96 269.244 1368.95 272.238 1372.64 272.238Z" fill="#693DE7" fill-opacity="0.5"/>
<path d="M1394.93 249.949C1398.62 249.949 1401.62 246.956 1401.62 243.263C1401.62 239.57 1398.62 236.576 1394.93 236.576C1391.24 236.576 1388.24 239.57 1388.24 243.263C1388.24 246.956 1391.24 249.949 1394.93 249.949Z" fill="#693DE7" fill-opacity="0.5"/>
<path d="M1417.22 272.238C1420.91 272.238 1423.91 269.244 1423.91 265.551C1423.91 261.858 1420.91 258.865 1417.22 258.865C1413.53 258.865 1410.53 261.858 1410.53 265.551C1410.53 269.244 1413.53 272.238 1417.22 272.238Z" fill="#693DE7" fill-opacity="0.5"/>
<path d="M1439.51 249.949C1443.2 249.949 1446.19 246.956 1446.19 243.263C1446.19 239.57 1443.2 236.576 1439.51 236.576C1435.81 236.576 1432.82 239.57 1432.82 243.263C1432.82 246.956 1435.81 249.949 1439.51 249.949Z" fill="#693DE7" fill-opacity="0.5"/>
<path d="M1328.07 316.814C1331.76 316.814 1334.75 313.82 1334.75 310.128C1334.75 306.435 1331.76 303.441 1328.07 303.441C1324.37 303.441 1321.38 306.435 1321.38 310.128C1321.38 313.82 1324.37 316.814 1328.07 316.814Z" fill="#693DE7" fill-opacity="0.5"/>
<path d="M1350.35 294.526C1354.05 294.526 1357.04 291.532 1357.04 287.839C1357.04 284.147 1354.05 281.153 1350.35 281.153C1346.66 281.153 1343.67 284.147 1343.67 287.839C1343.67 291.532 1346.66 294.526 1350.35 294.526Z" fill="#693DE7" fill-opacity="0.5"/>
<path d="M1372.64 316.814C1376.34 316.814 1379.33 313.82 1379.33 310.128C1379.33 306.435 1376.34 303.441 1372.64 303.441C1368.95 303.441 1365.96 306.435 1365.96 310.128C1365.96 313.82 1368.95 316.814 1372.64 316.814Z" fill="#693DE7" fill-opacity="0.5"/>
<path d="M1394.93 294.526C1398.62 294.526 1401.62 291.532 1401.62 287.839C1401.62 284.147 1398.62 281.153 1394.93 281.153C1391.24 281.153 1388.24 284.147 1388.24 287.839C1388.24 291.532 1391.24 294.526 1394.93 294.526Z" fill="#693DE7" fill-opacity="0.5"/>
<path d="M1417.22 316.814C1420.91 316.814 1423.91 313.82 1423.91 310.128C1423.91 306.435 1420.91 303.441 1417.22 303.441C1413.53 303.441 1410.53 306.435 1410.53 310.128C1410.53 313.82 1413.53 316.814 1417.22 316.814Z" fill="#693DE7" fill-opacity="0.5"/>
<path d="M1439.51 294.526C1443.2 294.526 1446.19 291.532 1446.19 287.839C1446.19 284.147 1443.2 281.153 1439.51 281.153C1435.81 281.153 1432.82 284.147 1432.82 287.839C1432.82 291.532 1435.81 294.526 1439.51 294.526Z" fill="#693DE7" fill-opacity="0.5"/>
<path d="M1350.35 339.102C1354.05 339.102 1357.04 336.109 1357.04 332.416C1357.04 328.723 1354.05 325.729 1350.35 325.729C1346.66 325.729 1343.67 328.723 1343.67 332.416C1343.67 336.109 1346.66 339.102 1350.35 339.102Z" fill="#693DE7" fill-opacity="0.5"/>
<path d="M1372.64 361.391C1376.34 361.391 1379.33 358.397 1379.33 354.704C1379.33 351.011 1376.34 348.018 1372.64 348.018C1368.95 348.018 1365.96 351.011 1365.96 354.704C1365.96 358.397 1368.95 361.391 1372.64 361.391Z" fill="#693DE7" fill-opacity="0.5"/>
<path d="M1394.93 339.102C1398.62 339.102 1401.62 336.109 1401.62 332.416C1401.62 328.723 1398.62 325.729 1394.93 325.729C1391.24 325.729 1388.24 328.723 1388.24 332.416C1388.24 336.109 1391.24 339.102 1394.93 339.102Z" fill="#693DE7" fill-opacity="0.5"/>
<path d="M1417.22 361.391C1420.91 361.391 1423.91 358.397 1423.91 354.704C1423.91 351.011 1420.91 348.018 1417.22 348.018C1413.53 348.018 1410.53 351.011 1410.53 354.704C1410.53 358.397 1413.53 361.391 1417.22 361.391Z" fill="#693DE7" fill-opacity="0.5"/>
<path d="M1439.51 339.102C1443.2 339.102 1446.19 336.109 1446.19 332.416C1446.19 328.723 1443.2 325.729 1439.51 325.729C1435.81 325.729 1432.82 328.723 1432.82 332.416C1432.82 336.109 1435.81 339.102 1439.51 339.102Z" fill="#693DE7" fill-opacity="0.5"/>
<path d="M1394.93 383.679C1398.62 383.679 1401.62 380.685 1401.62 376.992C1401.62 373.3 1398.62 370.306 1394.93 370.306C1391.24 370.306 1388.24 373.3 1388.24 376.992C1388.24 380.685 1391.24 383.679 1394.93 383.679Z" fill="#693DE7" fill-opacity="0.5"/>
<path d="M1417.22 405.967C1420.91 405.967 1423.91 402.973 1423.91 399.281C1423.91 395.588 1420.91 392.594 1417.22 392.594C1413.53 392.594 1410.53 395.588 1410.53 399.281C1410.53 402.973 1413.53 405.967 1417.22 405.967Z" fill="#693DE7" fill-opacity="0.5"/>
<path d="M1439.51 383.679C1443.2 383.679 1446.19 380.685 1446.19 376.992C1446.19 373.3 1443.2 370.306 1439.51 370.306C1435.81 370.306 1432.82 373.3 1432.82 376.992C1432.82 380.685 1435.81 383.679 1439.51 383.679Z" fill="#693DE7" fill-opacity="0.5"/>
<path d="M1439.51 428.255C1443.2 428.255 1446.19 425.262 1446.19 421.569C1446.19 417.876 1443.2 414.882 1439.51 414.882C1435.81 414.882 1432.82 417.876 1432.82 421.569C1432.82 425.262 1435.81 428.255 1439.51 428.255Z" fill="#693DE7" fill-opacity="0.5"/>
</g>
<rect width="637.119" height="583.663" rx="50" transform="matrix(0.706125 0.708087 -0.706125 0.708087 -215.119 -122)" fill="#E6DEFF"/>
<rect opacity="0.1" width="125.138" height="583.663" rx="50" transform="matrix(0.706125 0.708087 -0.706125 0.708087 1451.32 -150.929)" fill="#7951F9"/>
<rect opacity="0.14" width="137.507" height="583.663" rx="50" transform="matrix(0.706125 0.708087 -0.706125 0.708087 1673.63 -147)" fill="#7951F9"/>
<g clip-path="url(#clip1_2_1322)">
<path d="M46.7144 122.661C43.0216 122.661 40.0279 119.668 40.0279 115.975C40.0279 112.282 43.0216 109.288 46.7144 109.288C50.4072 109.288 53.4009 112.282 53.4009 115.975C53.4009 119.668 50.4072 122.661 46.7144 122.661Z" fill="#693DE7" fill-opacity="0.5"/>
<path d="M24.4263 100.373C20.7335 100.373 17.7399 97.3793 17.7399 93.6865C17.7399 89.9936 20.7335 87 24.4263 87C28.1192 87 31.1128 89.9936 31.1128 93.6865C31.1128 97.3793 28.1192 100.373 24.4263 100.373Z" fill="#693DE7" fill-opacity="0.5"/>
<path d="M2.13775 122.661C-1.55509 122.661 -4.54872 119.668 -4.54872 115.975C-4.54872 112.282 -1.55509 109.288 2.13775 109.288C5.83058 109.288 8.82422 112.282 8.82422 115.975C8.82422 119.668 5.83058 122.661 2.13775 122.661Z" fill="#693DE7" fill-opacity="0.5"/>
<path d="M91.2911 167.238C87.5982 167.238 84.6046 164.244 84.6046 160.551C84.6046 156.858 87.5982 153.865 91.2911 153.865C94.9839 153.865 97.9775 156.858 97.9775 160.551C97.9775 164.244 94.9839 167.238 91.2911 167.238Z" fill="#693DE7" fill-opacity="0.5"/>
<path d="M69.0025 144.949C65.3097 144.949 62.316 141.956 62.316 138.263C62.316 134.57 65.3097 131.576 69.0025 131.576C72.6953 131.576 75.689 134.57 75.689 138.263C75.689 141.956 72.6953 144.949 69.0025 144.949Z" fill="#693DE7" fill-opacity="0.5"/>
<path d="M46.7144 167.238C43.0216 167.238 40.0279 164.244 40.0279 160.551C40.0279 156.858 43.0216 153.865 46.7144 153.865C50.4072 153.865 53.4009 156.858 53.4009 160.551C53.4009 164.244 50.4072 167.238 46.7144 167.238Z" fill="#693DE7" fill-opacity="0.5"/>
<path d="M24.4263 144.949C20.7335 144.949 17.7399 141.956 17.7399 138.263C17.7399 134.57 20.7335 131.576 24.4263 131.576C28.1192 131.576 31.1128 134.57 31.1128 138.263C31.1128 141.956 28.1192 144.949 24.4263 144.949Z" fill="#693DE7" fill-opacity="0.5"/>
<path d="M2.13775 167.238C-1.55509 167.238 -4.54872 164.244 -4.54872 160.551C-4.54872 156.858 -1.55509 153.865 2.13775 153.865C5.83058 153.865 8.82422 156.858 8.82422 160.551C8.82422 164.244 5.83058 167.238 2.13775 167.238Z" fill="#693DE7" fill-opacity="0.5"/>
<path d="M135.867 211.814C132.174 211.814 129.181 208.82 129.181 205.128C129.181 201.435 132.174 198.441 135.867 198.441C139.56 198.441 142.554 201.435 142.554 205.128C142.554 208.82 139.56 211.814 135.867 211.814Z" fill="#693DE7" fill-opacity="0.5"/>
<path d="M113.579 189.526C109.886 189.526 106.893 186.532 106.893 182.839C106.893 179.147 109.886 176.153 113.579 176.153C117.272 176.153 120.266 179.147 120.266 182.839C120.266 186.532 117.272 189.526 113.579 189.526Z" fill="#693DE7" fill-opacity="0.5"/>
<path d="M91.2911 211.814C87.5982 211.814 84.6046 208.82 84.6046 205.128C84.6046 201.435 87.5982 198.441 91.2911 198.441C94.9839 198.441 97.9775 201.435 97.9775 205.128C97.9775 208.82 94.9839 211.814 91.2911 211.814Z" fill="#693DE7" fill-opacity="0.5"/>
<path d="M69.0025 189.526C65.3097 189.526 62.316 186.532 62.316 182.839C62.316 179.147 65.3097 176.153 69.0025 176.153C72.6953 176.153 75.689 179.147 75.689 182.839C75.689 186.532 72.6953 189.526 69.0025 189.526Z" fill="#693DE7" fill-opacity="0.5"/>
<path d="M46.7144 211.814C43.0216 211.814 40.0279 208.82 40.0279 205.128C40.0279 201.435 43.0216 198.441 46.7144 198.441C50.4072 198.441 53.4009 201.435 53.4009 205.128C53.4009 208.82 50.4072 211.814 46.7144 211.814Z" fill="#693DE7" fill-opacity="0.5"/>
<path d="M24.4263 189.526C20.7335 189.526 17.7399 186.532 17.7399 182.839C17.7399 179.147 20.7335 176.153 24.4263 176.153C28.1192 176.153 31.1128 179.147 31.1128 182.839C31.1128 186.532 28.1192 189.526 24.4263 189.526Z" fill="#693DE7" fill-opacity="0.5"/>
<path d="M2.13775 211.814C-1.55509 211.814 -4.54872 208.82 -4.54872 205.128C-4.54872 201.435 -1.55509 198.441 2.13775 198.441C5.83058 198.441 8.82422 201.435 8.82422 205.128C8.82422 208.82 5.83058 211.814 2.13775 211.814Z" fill="#693DE7" fill-opacity="0.5"/>
<path d="M113.579 234.102C109.886 234.102 106.893 231.109 106.893 227.416C106.893 223.723 109.886 220.729 113.579 220.729C117.272 220.729 120.266 223.723 120.266 227.416C120.266 231.109 117.272 234.102 113.579 234.102Z" fill="#693DE7" fill-opacity="0.5"/>
<path d="M91.2911 256.391C87.5982 256.391 84.6046 253.397 84.6046 249.704C84.6046 246.011 87.5982 243.018 91.2911 243.018C94.9839 243.018 97.9775 246.011 97.9775 249.704C97.9775 253.397 94.9839 256.391 91.2911 256.391Z" fill="#693DE7" fill-opacity="0.5"/>
<path d="M69.0025 234.102C65.3097 234.102 62.316 231.109 62.316 227.416C62.316 223.723 65.3097 220.729 69.0025 220.729C72.6953 220.729 75.689 223.723 75.689 227.416C75.689 231.109 72.6953 234.102 69.0025 234.102Z" fill="#693DE7" fill-opacity="0.5"/>
<path d="M46.7144 256.391C43.0216 256.391 40.0279 253.397 40.0279 249.704C40.0279 246.011 43.0216 243.018 46.7144 243.018C50.4072 243.018 53.4009 246.011 53.4009 249.704C53.4009 253.397 50.4072 256.391 46.7144 256.391Z" fill="#693DE7" fill-opacity="0.5"/>
<path d="M24.4263 234.102C20.7335 234.102 17.7399 231.109 17.7399 227.416C17.7399 223.723 20.7335 220.729 24.4263 220.729C28.1192 220.729 31.1128 223.723 31.1128 227.416C31.1128 231.109 28.1192 234.102 24.4263 234.102Z" fill="#693DE7" fill-opacity="0.5"/>
<path d="M2.13775 256.391C-1.55509 256.391 -4.54872 253.397 -4.54872 249.704C-4.54872 246.011 -1.55509 243.018 2.13775 243.018C5.83058 243.018 8.82422 246.011 8.82422 249.704C8.82422 253.397 5.83058 256.391 2.13775 256.391Z" fill="#693DE7" fill-opacity="0.5"/>
<path d="M69.0025 278.679C65.3097 278.679 62.316 275.685 62.316 271.992C62.316 268.3 65.3097 265.306 69.0025 265.306C72.6953 265.306 75.689 268.3 75.689 271.992C75.689 275.685 72.6953 278.679 69.0025 278.679Z" fill="#693DE7" fill-opacity="0.5"/>
<path d="M46.7144 300.967C43.0216 300.967 40.0279 297.973 40.0279 294.281C40.0279 290.588 43.0216 287.594 46.7144 287.594C50.4072 287.594 53.4009 290.588 53.4009 294.281C53.4009 297.973 50.4072 300.967 46.7144 300.967Z" fill="#693DE7" fill-opacity="0.5"/>
<path d="M24.4263 278.679C20.7335 278.679 17.7399 275.685 17.7399 271.992C17.7399 268.3 20.7335 265.306 24.4263 265.306C28.1192 265.306 31.1128 268.3 31.1128 271.992C31.1128 275.685 28.1192 278.679 24.4263 278.679Z" fill="#693DE7" fill-opacity="0.5"/>
<path d="M2.13775 300.967C-1.55509 300.967 -4.54872 297.973 -4.54872 294.281C-4.54872 290.588 -1.55509 287.594 2.13775 287.594C5.83058 287.594 8.82422 290.588 8.82422 294.281C8.82422 297.973 5.83058 300.967 2.13775 300.967Z" fill="#693DE7" fill-opacity="0.5"/>
<path d="M24.4263 323.255C20.7335 323.255 17.7399 320.262 17.7399 316.569C17.7399 312.876 20.7335 309.882 24.4263 309.882C28.1192 309.882 31.1128 312.876 31.1128 316.569C31.1128 320.262 28.1192 323.255 24.4263 323.255Z" fill="#693DE7" fill-opacity="0.5"/>
<path d="M2.13775 345.543C-1.55509 345.543 -4.54872 342.55 -4.54872 338.857C-4.54872 335.164 -1.55509 332.171 2.13775 332.171C5.83058 332.171 8.82422 335.164 8.82422 338.857C8.82422 342.55 5.83058 345.543 2.13775 345.543Z" fill="#693DE7" fill-opacity="0.5"/>
</g>
</g>
<defs>
<clipPath id="clip0_2_1322">
<rect width="208.421" height="285" fill="white" transform="translate(1254.52 192)"/>
</clipPath>
<clipPath id="clip1_2_1322">
<rect width="234.349" height="285" fill="white" transform="matrix(-1 0 0 1 209.418 87)"/>
</clipPath>
</defs>
</svg>
