<svg width="25" height="24" viewBox="0 0 25 24" fill="none" xmlns="http://www.w3.org/2000/svg">
<path d="M2.75 2.78865V21.2105C2.75012 21.2505 2.76204 21.2895 2.78427 21.3228C2.80649 21.356 2.83803 21.3819 2.87492 21.3973C2.91182 21.4126 2.95243 21.4168 2.99166 21.4091C3.0309 21.4015 3.06701 21.3825 3.09547 21.3544L12.6875 12.0001L3.09547 2.64474C3.06701 2.61668 3.0309 2.59765 2.99166 2.59003C2.95243 2.58241 2.91182 2.58654 2.87492 2.60191C2.83803 2.61728 2.80649 2.6432 2.78427 2.67642C2.76204 2.70964 2.75012 2.74868 2.75 2.78865Z" fill="white"/>
<path d="M16.7093 8.15627L4.68216 1.53002L4.67466 1.5258C4.46747 1.4133 4.2706 1.69361 4.44028 1.85674L13.8683 10.8717L16.7093 8.15627Z" fill="white"/>
<path d="M4.44132 22.1433C4.2707 22.3064 4.46757 22.5867 4.6757 22.4742L4.6832 22.47L16.7094 15.8437L13.8684 13.1273L4.44132 22.1433Z" fill="white"/>
<path d="M21.5649 10.8281L18.2063 8.97839L15.0483 12L18.2063 15.0201L21.5649 13.1718C22.4785 12.667 22.4785 11.3329 21.5649 10.8281Z" fill="white"/>
</svg>
