<svg width="81" height="29" viewBox="0 0 81 29" fill="none" xmlns="http://www.w3.org/2000/svg">
<path d="M23.0966 23L24.2472 19.3352H30.2727L31.4233 23H35.9574L30.0682 5.54545H24.4517L18.5625 23H23.0966ZM25.2528 16.1307L27.1875 9.94318H27.3239L29.267 16.1307H25.2528ZM44.4055 9.90909H42.0447V6.77273H37.8771V9.90909H36.147V12.9773H37.8771V19.3438C37.8516 21.9943 39.5732 23.3239 42.5135 23.1875C43.5192 23.1364 44.2436 22.9318 44.6442 22.8125L44.0135 19.804C43.8345 19.8466 43.4169 19.9318 43.1016 19.9318C42.4283 19.9318 42.0447 19.6591 42.0447 18.8835V12.9773H44.4055V9.90909ZM50.9808 5.54545H46.8132V23H50.9808V5.54545ZM57.3239 23.2216C59.1477 23.2216 60.4091 22.5142 61.125 21.1761H61.2273V23H65.1477V14.1023C65.1477 11.3324 62.6847 9.73864 59.3523 9.73864C55.8324 9.73864 53.8381 11.5114 53.5057 13.8977L57.3494 14.0341C57.5284 13.1989 58.2188 12.6875 59.3182 12.6875C60.3409 12.6875 60.9886 13.1818 60.9886 14.0597V14.1023C60.9886 14.9034 60.1193 15.0739 57.8864 15.2699C55.2358 15.4915 53.0199 16.4716 53.0199 19.3693C53.0199 21.9602 54.8182 23.2216 57.3239 23.2216ZM58.6108 20.4943C57.6477 20.4943 56.9659 20.0341 56.9659 19.1648C56.9659 18.321 57.6307 17.8097 58.8153 17.6307C59.5909 17.5199 60.5455 17.3494 61.0142 17.1023V18.3466C61.0142 19.625 59.9403 20.4943 58.6108 20.4943ZM79.125 13.9062C78.9034 11.3153 76.7812 9.73864 73.2358 9.73864C69.6903 9.73864 67.4318 11.2812 67.4489 13.9062C67.4318 15.9176 68.7188 17.2131 71.3352 17.6989L73.6193 18.1335C74.7017 18.3466 75.196 18.6875 75.2131 19.267C75.196 19.9233 74.4631 20.358 73.3977 20.358C72.2131 20.358 71.4119 19.8466 71.233 18.892L67.1165 18.9943C67.4148 21.5852 69.6392 23.2472 73.3807 23.2472C76.8835 23.2472 79.4318 21.5 79.4489 18.8068C79.4318 16.8977 78.1705 15.7642 75.5625 15.2614L73.0398 14.7841C71.9318 14.5625 71.5739 14.1705 71.5824 13.6676C71.5739 13.0028 72.3494 12.5938 73.3125 12.5938C74.4119 12.5938 75.179 13.1818 75.2983 14.0085L79.125 13.9062Z" fill="#9672FF"/>
<path d="M23.0966 23V23.2H23.2434L23.2874 23.0599L23.0966 23ZM24.2472 19.3352V19.1352H24.1003L24.0563 19.2753L24.2472 19.3352ZM30.2727 19.3352L30.4635 19.2753L30.4196 19.1352H30.2727V19.3352ZM31.4233 23L31.2325 23.0599L31.2765 23.2H31.4233V23ZM35.9574 23V23.2H36.2359L36.1469 22.9361L35.9574 23ZM30.0682 5.54545L30.2577 5.48151L30.2118 5.34545H30.0682V5.54545ZM24.4517 5.54545V5.34545H24.3081L24.2622 5.48151L24.4517 5.54545ZM18.5625 23L18.373 22.9361L18.2839 23.2H18.5625V23ZM25.2528 16.1307L25.062 16.071L24.9808 16.3307H25.2528V16.1307ZM27.1875 9.94318V9.74318H27.0405L26.9966 9.8835L27.1875 9.94318ZM27.3239 9.94318L27.5147 9.88326L27.4707 9.74318H27.3239V9.94318ZM29.267 16.1307V16.3307H29.5395L29.4579 16.0708L29.267 16.1307ZM23.2874 23.0599L24.438 19.3951L24.0563 19.2753L22.9058 22.9401L23.2874 23.0599ZM24.2472 19.5352H30.2727V19.1352H24.2472V19.5352ZM30.0819 19.3951L31.2325 23.0599L31.6141 22.9401L30.4635 19.2753L30.0819 19.3951ZM31.4233 23.2H35.9574V22.8H31.4233V23.2ZM36.1469 22.9361L30.2577 5.48151L29.8787 5.60939L35.7679 23.0639L36.1469 22.9361ZM30.0682 5.34545H24.4517V5.74545H30.0682V5.34545ZM24.2622 5.48151L18.373 22.9361L18.752 23.0639L24.6412 5.60939L24.2622 5.48151ZM18.5625 23.2H23.0966V22.8H18.5625V23.2ZM25.4437 16.1904L27.3784 10.0029L26.9966 9.8835L25.062 16.071L25.4437 16.1904ZM27.1875 10.1432H27.3239V9.74318H27.1875V10.1432ZM27.1331 10.0031L29.0762 16.1906L29.4579 16.0708L27.5147 9.88326L27.1331 10.0031ZM29.267 15.9307H25.2528V16.3307H29.267V15.9307ZM44.4055 9.90909H44.6055V9.70909H44.4055V9.90909ZM42.0447 9.90909H41.8447V10.1091H42.0447V9.90909ZM42.0447 6.77273H42.2447V6.57273H42.0447V6.77273ZM37.8771 6.77273V6.57273H37.6771V6.77273H37.8771ZM37.8771 9.90909V10.1091H38.0771V9.90909H37.8771ZM36.147 9.90909V9.70909H35.947V9.90909H36.147ZM36.147 12.9773H35.947V13.1773H36.147V12.9773ZM37.8771 12.9773H38.0771V12.7773H37.8771V12.9773ZM37.8771 19.3438L38.0771 19.3457V19.3438H37.8771ZM42.5135 23.1875L42.5228 23.3873L42.5237 23.3872L42.5135 23.1875ZM44.6442 22.8125L44.7013 23.0042L44.8777 22.9516L44.8399 22.7715L44.6442 22.8125ZM44.0135 19.804L44.2092 19.7629L44.1671 19.5618L43.9672 19.6094L44.0135 19.804ZM42.0447 12.9773V12.7773H41.8447V12.9773H42.0447ZM44.4055 12.9773V13.1773H44.6055V12.9773H44.4055ZM44.4055 9.70909H42.0447V10.1091H44.4055V9.70909ZM42.2447 9.90909V6.77273H41.8447V9.90909H42.2447ZM42.0447 6.57273H37.8771V6.97273H42.0447V6.57273ZM37.6771 6.77273V9.90909H38.0771V6.77273H37.6771ZM37.8771 9.70909H36.147V10.1091H37.8771V9.70909ZM35.947 9.90909V12.9773H36.347V9.90909H35.947ZM36.147 13.1773H37.8771V12.7773H36.147V13.1773ZM37.6771 12.9773V19.3438H38.0771V12.9773H37.6771ZM37.6771 19.3418C37.6639 20.7128 38.1043 21.7721 38.9569 22.4659C39.8035 23.1547 41.0246 23.4568 42.5228 23.3873L42.5042 22.9877C41.0621 23.0546 39.9522 22.7601 39.2093 22.1556C38.4724 21.556 38.0648 20.6253 38.0771 19.3457L37.6771 19.3418ZM42.5237 23.3872C43.5523 23.3349 44.2942 23.1254 44.7013 23.0042L44.5871 22.6208C44.1931 22.7382 43.486 22.9378 42.5033 22.9878L42.5237 23.3872ZM44.8399 22.7715L44.2092 19.7629L43.8177 19.845L44.4484 22.8535L44.8399 22.7715ZM43.9672 19.6094C43.7904 19.6515 43.392 19.7318 43.1016 19.7318V20.1318C43.4418 20.1318 43.8786 20.0417 44.0598 19.9985L43.9672 19.6094ZM43.1016 19.7318C42.7862 19.7318 42.5822 19.667 42.4559 19.5511C42.333 19.4385 42.2447 19.2413 42.2447 18.8835H41.8447C41.8447 19.3013 41.9482 19.6283 42.1855 19.8459C42.4192 20.0603 42.7436 20.1318 43.1016 20.1318V19.7318ZM42.2447 18.8835V12.9773H41.8447V18.8835H42.2447ZM42.0447 13.1773H44.4055V12.7773H42.0447V13.1773ZM44.6055 12.9773V9.90909H44.2055V12.9773H44.6055ZM50.9808 5.54545H51.1808V5.34545H50.9808V5.54545ZM46.8132 5.54545V5.34545H46.6132V5.54545H46.8132ZM46.8132 23H46.6132V23.2H46.8132V23ZM50.9808 23V23.2H51.1808V23H50.9808ZM50.9808 5.34545H46.8132V5.74545H50.9808V5.34545ZM46.6132 5.54545V23H47.0132V5.54545H46.6132ZM46.8132 23.2H50.9808V22.8H46.8132V23.2ZM51.1808 23V5.54545H50.7808V23H51.1808ZM61.125 21.1761V20.9761H61.0052L60.9487 21.0818L61.125 21.1761ZM61.2273 21.1761H61.4273V20.9761H61.2273V21.1761ZM61.2273 23H61.0273V23.2H61.2273V23ZM65.1477 23V23.2H65.3477V23H65.1477ZM53.5057 13.8977L53.3076 13.8701L53.277 14.0897L53.4986 14.0976L53.5057 13.8977ZM57.3494 14.0341L57.3423 14.234L57.5099 14.2399L57.545 14.076L57.3494 14.0341ZM57.8864 15.2699L57.903 15.4692L57.9039 15.4691L57.8864 15.2699ZM58.8153 17.6307L58.7871 17.4327L58.7855 17.4329L58.8153 17.6307ZM61.0142 17.1023H61.2142V16.7707L60.9209 16.9254L61.0142 17.1023ZM57.3239 23.4216C59.2081 23.4216 60.5447 22.6846 61.3013 21.2705L60.9487 21.0818C60.2734 22.3438 59.0874 23.0216 57.3239 23.0216V23.4216ZM61.125 21.3761H61.2273V20.9761H61.125V21.3761ZM61.0273 21.1761V23H61.4273V21.1761H61.0273ZM61.2273 23.2H65.1477V22.8H61.2273V23.2ZM65.3477 23V14.1023H64.9477V23H65.3477ZM65.3477 14.1023C65.3477 12.6499 64.6985 11.4999 63.6166 10.7195C62.541 9.94363 61.0474 9.53864 59.3523 9.53864V9.93864C60.9895 9.93864 62.3936 10.3305 63.3826 11.0439C64.3654 11.7529 64.9477 12.7847 64.9477 14.1023H65.3477ZM59.3523 9.53864C57.5594 9.53864 56.1355 9.99027 55.113 10.7638C54.0886 11.5387 53.4808 12.627 53.3076 13.8701L53.7038 13.9253C53.863 12.7821 54.4185 11.7908 55.3543 11.0828C56.2921 10.3734 57.6252 9.93864 59.3523 9.93864V9.53864ZM53.4986 14.0976L57.3423 14.234L57.3565 13.8342L53.5128 13.6979L53.4986 14.0976ZM57.545 14.076C57.6246 13.7046 57.8149 13.4129 58.1032 13.2115C58.394 13.0083 58.7985 12.8875 59.3182 12.8875V12.4875C58.7384 12.4875 58.248 12.6224 57.8741 12.8836C57.4976 13.1467 57.2533 13.5284 57.1539 13.9922L57.545 14.076ZM59.3182 12.8875C59.8001 12.8875 60.1681 13.0042 60.4115 13.2002C60.6491 13.3915 60.7886 13.6746 60.7886 14.0597H61.1886C61.1886 13.5669 61.0043 13.1639 60.6624 12.8886C60.3262 12.6179 59.859 12.4875 59.3182 12.4875V12.8875ZM60.7886 14.0597V14.1023H61.1886V14.0597H60.7886ZM60.7886 14.1023C60.7886 14.2628 60.7466 14.3738 60.668 14.4627C60.5843 14.5574 60.443 14.6453 60.211 14.7235C59.7416 14.8816 58.9919 14.9721 57.8689 15.0707L57.9039 15.4691C59.0138 15.3717 59.8152 15.2789 60.3387 15.1025C60.6032 15.0134 60.8187 14.8963 60.9678 14.7276C61.122 14.5531 61.1886 14.3424 61.1886 14.1023H60.7886ZM57.8697 15.0706C56.5303 15.1826 55.2711 15.4876 54.3426 16.1535C53.4015 16.8285 52.8199 17.8603 52.8199 19.3693H53.2199C53.2199 17.9806 53.7462 17.0735 54.5757 16.4786C55.4178 15.8746 56.5918 15.5788 57.903 15.4692L57.8697 15.0706ZM52.8199 19.3693C52.8199 20.7148 53.2891 21.7376 54.1038 22.4203C54.9133 23.0987 56.0402 23.4216 57.3239 23.4216V23.0216C56.1019 23.0216 55.0768 22.7138 54.3607 22.1138C53.6498 21.5181 53.2199 20.6148 53.2199 19.3693H52.8199ZM58.6108 20.2943C58.1581 20.2943 57.7946 20.1858 57.5491 19.997C57.3103 19.8133 57.1659 19.541 57.1659 19.1648H56.7659C56.7659 19.6579 56.9624 20.0503 57.3053 20.3141C57.6415 20.5727 58.1005 20.6943 58.6108 20.6943V20.2943ZM57.1659 19.1648C57.1659 18.8035 57.3047 18.5215 57.5726 18.3036C57.8484 18.0792 58.2714 17.9151 58.8452 17.8284L58.7855 17.4329C58.1746 17.5252 57.6729 17.7063 57.3202 17.9933C56.9595 18.2867 56.7659 18.6823 56.7659 19.1648H57.1659ZM58.8436 17.8287C59.2336 17.773 59.6718 17.7018 60.0731 17.6129C60.4698 17.525 60.8479 17.416 61.1075 17.2792L60.9209 16.9254C60.7117 17.0357 60.3782 17.1355 59.9866 17.2224C59.5995 17.3081 59.1727 17.3776 58.7871 17.4327L58.8436 17.8287ZM60.8142 17.1023V18.3466H61.2142V17.1023H60.8142ZM60.8142 18.3466C60.8142 19.4888 59.8575 20.2943 58.6108 20.2943V20.6943C60.0232 20.6943 61.2142 19.7612 61.2142 18.3466H60.8142ZM79.125 13.9062L79.1303 14.1062L79.3423 14.1005L79.3243 13.8892L79.125 13.9062ZM67.4489 13.9062L67.6489 13.9079L67.6489 13.905L67.4489 13.9062ZM71.3352 17.6989L71.3726 17.5024L71.3717 17.5022L71.3352 17.6989ZM73.6193 18.1335L73.6579 17.9373L73.6567 17.937L73.6193 18.1335ZM75.2131 19.267L75.4133 19.2722L75.413 19.2612L75.2131 19.267ZM71.233 18.892L71.4295 18.8552L71.3982 18.6879L71.228 18.6921L71.233 18.892ZM67.1165 18.9943L67.1115 18.7944L66.8928 18.7998L66.9178 19.0172L67.1165 18.9943ZM79.4489 18.8068L79.6489 18.8081L79.6489 18.805L79.4489 18.8068ZM75.5625 15.2614L75.6004 15.065L75.5997 15.0648L75.5625 15.2614ZM73.0398 14.7841L73.0005 14.9802L73.0026 14.9806L73.0398 14.7841ZM71.5824 13.6676L71.7824 13.671L71.7824 13.665L71.5824 13.6676ZM75.2983 14.0085L75.1003 14.0371L75.1258 14.2132L75.3036 14.2085L75.2983 14.0085ZM79.3243 13.8892C79.2087 12.538 78.5943 11.4419 77.5434 10.6883C76.4978 9.93858 75.0357 9.53864 73.2358 9.53864V9.93864C74.9814 9.93864 76.3531 10.327 77.3103 11.0134C78.2622 11.6959 78.8197 12.6836 78.9257 13.9233L79.3243 13.8892ZM73.2358 9.53864C71.4376 9.53864 69.9412 9.92933 68.8906 10.675C67.8323 11.4261 67.2399 12.5291 67.2489 13.9075L67.6489 13.905C67.6408 12.6584 68.1691 11.6776 69.1222 11.0012C70.0829 10.3192 71.4885 9.93864 73.2358 9.93864V9.53864ZM67.2489 13.9046C67.2399 14.9573 67.5741 15.8385 68.2642 16.5172C68.9493 17.191 69.9677 17.6484 71.2987 17.8955L71.3717 17.5022C70.0863 17.2636 69.153 16.8303 68.5447 16.2321C67.9415 15.6388 67.6407 14.8665 67.6489 13.9079L67.2489 13.9046ZM71.2978 17.8953L73.5819 18.33L73.6567 17.937L71.3726 17.5024L71.2978 17.8953ZM73.5807 18.3298C74.1132 18.4346 74.4741 18.5665 74.7003 18.7262C74.9148 18.8777 75.0066 19.0517 75.0132 19.2729L75.413 19.2612C75.4024 18.9028 75.2386 18.6167 74.9311 18.3995C74.6353 18.1907 74.2079 18.0455 73.6579 17.9373L73.5807 18.3298ZM75.0131 19.2619C75.0068 19.5058 74.8705 19.7225 74.5958 19.887C74.3172 20.0537 73.9063 20.158 73.3977 20.158V20.558C73.9545 20.558 74.4427 20.4448 74.8012 20.2302C75.1636 20.0133 75.4023 19.6846 75.413 19.2722L75.0131 19.2619ZM73.3977 20.158C72.8323 20.158 72.3779 20.0357 72.0492 19.8165C71.7247 19.6003 71.5094 19.2813 71.4295 18.8552L71.0364 18.9289C71.1355 19.4573 71.4102 19.8713 71.8273 20.1494C72.24 20.4245 72.7785 20.558 73.3977 20.558V20.158ZM71.228 18.6921L67.1115 18.7944L67.1214 19.1943L71.2379 19.092L71.228 18.6921ZM66.9178 19.0172C67.0734 20.3689 67.7343 21.4839 68.843 22.2564C69.9472 23.0258 71.4825 23.4472 73.3807 23.4472V23.0472C71.5374 23.0472 70.0897 22.6376 69.0717 21.9282C68.0583 21.2221 67.4578 20.2106 67.3152 18.9714L66.9178 19.0172ZM73.3807 23.4472C75.163 23.4472 76.7196 23.003 77.8386 22.1994C78.9621 21.3926 79.6399 20.2252 79.6489 18.8081L79.2489 18.8056C79.2408 20.0816 78.6359 21.1344 77.6053 21.8745C76.5702 22.6178 75.1012 23.0472 73.3807 23.0472V23.4472ZM79.6489 18.805C79.6399 17.8013 79.3011 16.9853 78.6118 16.3587C77.93 15.739 76.9219 15.3198 75.6004 15.065L75.5246 15.4577C76.811 15.7058 77.7376 16.1047 78.3428 16.6547C78.9404 17.198 79.2408 17.9033 79.2489 18.8086L79.6489 18.805ZM75.5997 15.0648L73.077 14.5876L73.0026 14.9806L75.5253 15.4579L75.5997 15.0648ZM73.079 14.588C72.538 14.4798 72.2097 14.3349 72.0202 14.1775C71.842 14.0294 71.7791 13.8646 71.7824 13.671L71.3824 13.6642C71.3772 13.9735 71.4889 14.2561 71.7646 14.4851C72.029 14.7048 72.4336 14.8668 73.0005 14.9802L73.079 14.588ZM71.7824 13.665C71.7793 13.4243 71.9139 13.2139 72.185 13.0535C72.4591 12.8913 72.8559 12.7937 73.3125 12.7937V12.3938C72.8061 12.3938 72.3335 12.5008 71.9812 12.7093C71.6258 12.9196 71.377 13.2462 71.3824 13.6702L71.7824 13.665ZM73.3125 12.7937C74.3438 12.7937 74.9993 13.3369 75.1003 14.0371L75.4962 13.98C75.3587 13.0267 74.48 12.3938 73.3125 12.3938V12.7937ZM75.3036 14.2085L79.1303 14.1062L79.1197 13.7063L75.293 13.8086L75.3036 14.2085Z" fill="#FD6D61"/>
<path d="M15 13.011C15 8.46046 11.4469 4.79609 7.14142 5.00882C3.28639 5.19934 0 8.6132 0 12.734C0 18.6952 7.49799 23.2916 7.49799 23.2916C7.49799 23.2916 15 18.6952 15 13.011Z" fill="#F76C60"/>
<path d="M10.2365 20.985C9.64527 21.4644 8.91627 21.7236 8.16641 21.7209C7.41655 21.7182 6.68928 21.4539 6.10124 20.9702C3.88214 19.1437 0.672621 15.8273 0.672621 11.9273C0.678151 10.2714 1.20506 8.66295 2.17283 7.34766C0.841898 8.74479 0 10.6488 0 12.7341C0 18.6952 7.49799 23.2917 7.49799 23.2917C7.49799 23.2917 10.5558 21.4179 12.7671 18.5837C11.9866 19.453 11.1403 20.256 10.2365 20.985Z" fill="#CD3C27"/>
<path d="M7.14159 5.00882C5.7899 5.08121 4.483 5.5365 3.3623 6.3254C4.24483 5.88301 5.20373 5.62909 6.18231 5.57866C10.4877 5.36609 14.041 9.03023 14.041 13.5809C14.041 18.0377 9.42901 21.8257 7.43727 23.2538C7.47628 23.2785 7.49786 23.2919 7.49786 23.2919C7.49786 23.2919 15 18.6952 15 13.011C15.0002 8.46046 11.447 4.79609 7.14159 5.00882Z" fill="#FF8F8F"/>
<path d="M7.49796 16.0756C6.88746 16.0756 6.29066 15.8874 5.78303 15.5349C5.27541 15.1823 4.87976 14.6812 4.64612 14.0949C4.41248 13.5085 4.35134 12.8634 4.47044 12.241C4.58953 11.6185 4.88351 11.0468 5.31519 10.598C5.74688 10.1493 6.29689 9.84368 6.89566 9.71986C7.49443 9.59605 8.11508 9.65959 8.67911 9.90244C9.24315 10.1453 9.72524 10.5566 10.0644 11.0842C10.4036 11.6119 10.5846 12.2323 10.5846 12.8669C10.5846 13.7179 10.2594 14.534 9.68057 15.1357C9.10171 15.7375 8.31661 16.0756 7.49796 16.0756Z" fill="white"/>
</svg>
