<svg width="38" height="34" viewBox="0 0 38 34" fill="none" xmlns="http://www.w3.org/2000/svg">
<path d="M35.8889 0C36.3899 0 36.8703 0.199007 37.2245 0.553243C37.5788 0.907478 37.7778 1.38792 37.7778 1.88889V15.1111C37.7778 15.6121 37.5788 16.0925 37.2245 16.4468C36.8703 16.801 36.3899 17 35.8889 17H32.1092L32.1111 32.1111C32.1111 32.6121 31.9121 33.0925 31.5579 33.4468C31.2036 33.801 30.7232 34 30.2222 34H7.55556C7.05459 34 6.57415 33.801 6.21991 33.4468C5.86567 33.0925 5.66667 32.6121 5.66667 32.1111L5.66478 16.9981L1.88889 17C1.38792 17 0.907478 16.801 0.553243 16.4468C0.199007 16.0925 0 15.6121 0 15.1111V1.88889C0 1.38792 0.199007 0.907478 0.553243 0.553243C0.907478 0.199007 1.38792 0 1.88889 0H13.2222C13.2222 1.50289 13.8192 2.94423 14.882 4.00694C15.9447 5.06964 17.386 5.66667 18.8889 5.66667C20.3918 5.66667 21.8331 5.06964 22.8958 4.00694C23.9585 2.94423 24.5556 1.50289 24.5556 0H35.8889Z"/>
</svg>
