<svg width="28" height="35" viewBox="0 0 28 35" fill="none" xmlns="http://www.w3.org/2000/svg">
<path d="M28 0V34.2222H24.8889V20.5333H20.2222V8.55556C20.2222 6.28648 21.0417 4.11034 22.5003 2.50586C23.9589 0.901386 25.9372 0 28 0ZM9.33333 20.3622V34.2222H6.22222V20.3622C4.4657 19.9672 2.8871 18.917 1.75334 17.3892C0.619574 15.8615 0.000219435 13.9499 0 11.9778V1.71111H3.11111V13.6889H6.22222V1.71111H9.33333V13.6889H12.4444V1.71111H15.5556V11.9778C15.5553 13.9499 14.936 15.8615 13.8022 17.3892C12.6685 18.917 11.0899 19.9672 9.33333 20.3622Z"/>
</svg>
